<svg xmlns="http://www.w3.org/2000/svg" width="960" height="500"><defs><style type="text/css">
.background {
  fill: white;
}

text {
  font-size: 14px;
  font-family: sans-serif;
}

.axis-path,
.axis-line {
  fill: none;
  stroke: #000;
  stroke-width: 1px;
  shape-rendering: crispEdges;
}

.line {
  fill: none;
  stroke-width: 1.5px;
}

.data-series-0 {
  stroke: steelblue;
  fill: steelblue;
}

.data-series-1 {
  stroke: crimson;
  fill: crimson;
}

.data-series-2 {
  stroke: mediumseagreen;
  fill: mediumseagreen;
}

.data-series-3 {
  stroke: mediumslateblue;
  fill: mediumslateblue;
}

.data-series-4 {
  stroke: goldenrod;
  fill: goldenrod;
}

.error-bar {
  fill: none;
}
</style></defs><rect width="960" height="500" class="background"/><g transform="translate(80,40)"><g transform="translate(420, 0)"><text style="text-anchor: middle; font-size: 28px;">`foldl acc "" arrayOfInts` where `acc` is `show a &lt;&gt; show b` or `i`</text></g><g class="x axis" transform="translate(0,400)"><g class="tick" style="opacity: 1;" transform="translate(35,0)"><line y2="6" x2="0" class="axis-line"/><text dy=".71em" style="text-anchor: middle;" y="9" x="0">2</text></g><g class="tick" style="opacity: 1;" transform="translate(105,0)"><line y2="6" x2="0" class="axis-line"/><text dy=".71em" style="text-anchor: middle;" y="9" x="0">4</text></g><g class="tick" style="opacity: 1;" transform="translate(175,0)"><line y2="6" x2="0" class="axis-line"/><text dy=".71em" style="text-anchor: middle;" y="9" x="0">6</text></g><g class="tick" style="opacity: 1;" transform="translate(245.00000000000003,0)"><line y2="6" x2="0" class="axis-line"/><text dy=".71em" style="text-anchor: middle;" y="9" x="0">8</text></g><g class="tick" style="opacity: 1;" transform="translate(315,0)"><line y2="6" x2="0" class="axis-line"/><text dy=".71em" style="text-anchor: middle;" y="9" x="0">10</text></g><g class="tick" style="opacity: 1;" transform="translate(385,0)"><line y2="6" x2="0" class="axis-line"/><text dy=".71em" style="text-anchor: middle;" y="9" x="0">12</text></g><g class="tick" style="opacity: 1;" transform="translate(454.99999999999994,0)"><line y2="6" x2="0" class="axis-line"/><text dy=".71em" style="text-anchor: middle;" y="9" x="0">14</text></g><g class="tick" style="opacity: 1;" transform="translate(525,0)"><line y2="6" x2="0" class="axis-line"/><text dy=".71em" style="text-anchor: middle;" y="9" x="0">16</text></g><g class="tick" style="opacity: 1;" transform="translate(595,0)"><line y2="6" x2="0" class="axis-line"/><text dy=".71em" style="text-anchor: middle;" y="9" x="0">18</text></g><g class="tick" style="opacity: 1;" transform="translate(665,0)"><line y2="6" x2="0" class="axis-line"/><text dy=".71em" style="text-anchor: middle;" y="9" x="0">20</text></g><g class="tick" style="opacity: 1;" transform="translate(735,0)"><line y2="6" x2="0" class="axis-line"/><text dy=".71em" style="text-anchor: middle;" y="9" x="0">22</text></g><g class="tick" style="opacity: 1;" transform="translate(805,0)"><line y2="6" x2="0" class="axis-line"/><text dy=".71em" style="text-anchor: middle;" y="9" x="0">24</text></g><path class="axis-path" d="M0,6V0H840V6"/><text x="420" y="40" style="text-anchor: middle;">Number of elements in the array</text></g><g class="y axis"><g class="tick" style="opacity: 1;" transform="translate(0,348.63481534893515)"><line x2="-6" y2="0" class="axis-line"/><text dy=".32em" style="text-anchor: end;" x="-9" y="0">10.00</text></g><g class="tick" style="opacity: 1;" transform="translate(0,297.26963029115285)"><line x2="-6" y2="0" class="axis-line"/><text dy=".32em" style="text-anchor: end;" x="-9" y="0">20.00</text></g><g class="tick" style="opacity: 1;" transform="translate(0,245.90444523337052)"><line x2="-6" y2="0" class="axis-line"/><text dy=".32em" style="text-anchor: end;" x="-9" y="0">30.00</text></g><g class="tick" style="opacity: 1;" transform="translate(0,194.5392601755882)"><line x2="-6" y2="0" class="axis-line"/><text dy=".32em" style="text-anchor: end;" x="-9" y="0">40.00</text></g><g class="tick" style="opacity: 1;" transform="translate(0,143.1740751178059)"><line x2="-6" y2="0" class="axis-line"/><text dy=".32em" style="text-anchor: end;" x="-9" y="0">50.00</text></g><g class="tick" style="opacity: 1;" transform="translate(0,91.80889006002353)"><line x2="-6" y2="0" class="axis-line"/><text dy=".32em" style="text-anchor: end;" x="-9" y="0">60.00</text></g><g class="tick" style="opacity: 1;" transform="translate(0,40.44370500224122)"><line x2="-6" y2="0" class="axis-line"/><text dy=".32em" style="text-anchor: end;" x="-9" y="0">70.00</text></g><path class="axis-path" d="M-6,0H0V400H-6"/><text transform="rotate(-90)" y="6" dy=".71em" style="text-anchor: end;">Mean running time (seconds)</text></g><g class="data-series-0"><circle cx="0" cy="399.9999994775752" r="3"/><circle cx="35" cy="399.99999618428427" r="3"/><circle cx="70" cy="399.9999914594082" r="3"/><circle cx="105" cy="399.99998354619464" r="3"/><circle cx="140" cy="399.99996917051834" r="3"/><circle cx="175" cy="399.99994347675073" r="3"/><circle cx="210" cy="399.99989526333644" r="3"/><circle cx="245.00000000000003" cy="399.99980767865014" r="3"/><circle cx="280" cy="399.9996349818825" r="3"/><circle cx="315" cy="399.9992946305414" r="3"/><circle cx="350" cy="399.9985456278875" r="3"/><circle cx="385" cy="399.99714429490126" r="3"/><circle cx="420" cy="399.9943633199372" r="3"/><circle cx="454.99999999999994" cy="399.98811214336286" r="3"/><circle cx="490.00000000000006" cy="399.974790829313" r="3"/><circle cx="525" cy="399.9495820520766" r="3"/><circle cx="560" cy="399.88861551084557" r="3"/><circle cx="595" cy="399.74456333258956" r="3"/><circle cx="630" cy="399.3792670060641" r="3"/><circle cx="665" cy="398.6502440277357" r="3"/><circle cx="700" cy="396.0169345793594" r="3"/><circle cx="735" cy="389.47769554866227" r="3"/><circle cx="770" cy="368.50433928030833" r="3"/><circle cx="805" cy="296.3456400689938" r="3"/><circle cx="840" cy="0" r="3"/><path class="error-bar" x="0" y="399.9999994775752" d="M 0 399.9999994775752 V 399.999999437173 h -3 h 6 h -3 V 399.99999951797747 h -3 h 6"/><path class="error-bar" x="35" y="399.99999618428427" d="M 35 399.99999618428427 V 399.99999616397804 h -3 h 6 h -3 V 399.9999962045905 h -3 h 6"/><path class="error-bar" x="70" y="399.9999914594082" d="M 70 399.9999914594082 V 399.9999913624494 h -3 h 6 h -3 V 399.9999915563669 h -3 h 6"/><path class="error-bar" x="105" y="399.99998354619464" d="M 105 399.99998354619464 V 399.9999833876848 h -3 h 6 h -3 V 399.99998370470445 h -3 h 6"/><path class="error-bar" x="140" y="399.99996917051834" d="M 140 399.99996917051834 V 399.9999690435716 h -3 h 6 h -3 V 399.99996929746516 h -3 h 6"/><path class="error-bar" x="175" y="399.99994347675073" d="M 175 399.99994347675073 V 399.9999424221204 h -3 h 6 h -3 V 399.999944531381 h -3 h 6"/><path class="error-bar" x="210" y="399.99989526333644" d="M 210 399.99989526333644 V 399.99989302022414 h -3 h 6 h -3 V 399.9998975064487 h -3 h 6"/><path class="error-bar" x="245.00000000000003" y="399.99980767865014" d="M 245.00000000000003 399.99980767865014 V 399.9998065886335 h -3 h 6 h -3 V 399.9998087686668 h -3 h 6"/><path class="error-bar" x="280" y="399.9996349818825" d="M 280 399.9996349818825 V 399.99963312378736 h -3 h 6 h -3 V 399.9996368399776 h -3 h 6"/><path class="error-bar" x="315" y="399.9992946305414" d="M 315 399.9992946305414 V 399.999285899233 h -3 h 6 h -3 V 399.9993033618498 h -3 h 6"/><path class="error-bar" x="350" y="399.9985456278875" d="M 350 399.9985456278875 V 399.9985387964097 h -3 h 6 h -3 V 399.9985524593653 h -3 h 6"/><path class="error-bar" x="385" y="399.99714429490126" d="M 385 399.99714429490126 V 399.9971276756169 h -3 h 6 h -3 V 399.99716091418554 h -3 h 6"/><path class="error-bar" x="420" y="399.9943633199372" d="M 420 399.9943633199372 V 399.99423606922824 h -3 h 6 h -3 V 399.9944905706462 h -3 h 6"/><path class="error-bar" x="454.99999999999994" y="399.98811214336286" d="M 454.99999999999994 399.98811214336286 V 399.9878713667096 h -3 h 6 h -3 V 399.98835292001615 h -3 h 6"/><path class="error-bar" x="490.00000000000006" y="399.974790829313" d="M 490.00000000000006 399.974790829313 V 399.9741194241757 h -3 h 6 h -3 V 399.9754622344504 h -3 h 6"/><path class="error-bar" x="525" y="399.9495820520766" d="M 525 399.9495820520766 V 399.948174554517 h -3 h 6 h -3 V 399.95098954963623 h -3 h 6"/><path class="error-bar" x="560" y="399.88861551084557" d="M 560 399.88861551084557 V 399.88520741357905 h -3 h 6 h -3 V 399.8920236081121 h -3 h 6"/><path class="error-bar" x="595" y="399.74456333258956" d="M 595 399.74456333258956 V 399.73048629145785 h -3 h 6 h -3 V 399.75864037372133 h -3 h 6"/><path class="error-bar" x="630" y="399.3792670060641" d="M 630 399.3792670060641 V 399.32675136000006 h -3 h 6 h -3 V 399.4317826521281 h -3 h 6"/><path class="error-bar" x="665" y="398.6502440277357" d="M 665 398.6502440277357 V 398.6230946902743 h -3 h 6 h -3 V 398.6773933651972 h -3 h 6"/><path class="error-bar" x="700" y="396.0169345793594" d="M 700 396.0169345793594 V 395.7942756769257 h -3 h 6 h -3 V 396.2395934817931 h -3 h 6"/><path class="error-bar" x="735" y="389.47769554866227" d="M 735 389.47769554866227 V 389.3199734799425 h -3 h 6 h -3 V 389.63541761738196 h -3 h 6"/><path class="error-bar" x="770" y="368.50433928030833" d="M 770 368.50433928030833 V 367.4667977794 h -3 h 6 h -3 V 369.54188078121666 h -3 h 6"/><path class="error-bar" x="805" y="296.3456400689938" d="M 805 296.3456400689938 V 290.5959526917485 h -3 h 6 h -3 V 302.09532744623925 h -3 h 6"/><path class="error-bar" x="840" y="0" d="M 840 0 V -23.091443792073107 h -3 h 6 h -3 V 23.091443792073107 h -3 h 6"/><path class="line" d="M0,399.9999994775752L35,399.99999618428427L70,399.9999914594082L105,399.99998354619464L140,399.99996917051834L175,399.99994347675073L210,399.99989526333644L245.00000000000003,399.99980767865014L280,399.9996349818825L315,399.9992946305414L350,399.9985456278875L385,399.99714429490126L420,399.9943633199372L454.99999999999994,399.98811214336286L490.00000000000006,399.974790829313L525,399.9495820520766L560,399.88861551084557L595,399.74456333258956L630,399.3792670060641L665,398.6502440277357L700,396.0169345793594L735,389.47769554866227L770,368.50433928030833L805,296.3456400689938L840,0"/></g><g class="data-series-1"><circle cx="0" cy="400" r="3"/><circle cx="35" cy="399.9999996721241" r="3"/><circle cx="70" cy="399.9999993426405" r="3"/><circle cx="105" cy="399.99999899297995" r="3"/><circle cx="140" cy="399.99999864360586" r="3"/><circle cx="175" cy="399.99999833170034" r="3"/><circle cx="210" cy="399.9999980330444" r="3"/><circle cx="245.00000000000003" cy="399.9999977636661" r="3"/><circle cx="280" cy="399.9999973868573" r="3"/><circle cx="315" cy="399.9999969798085" r="3"/><circle cx="350" cy="399.99999654334124" r="3"/><circle cx="385" cy="399.99999645948907" r="3"/><circle cx="420" cy="399.99999630956864" r="3"/><circle cx="454.99999999999994" cy="399.9999958249612" r="3"/><circle cx="490.00000000000006" cy="399.99999552612593" r="3"/><circle cx="525" cy="399.99999502651394" r="3"/><circle cx="560" cy="399.99999473467847" r="3"/><circle cx="595" cy="399.99999443948593" r="3"/><circle cx="630" cy="399.9999940426703" r="3"/><circle cx="665" cy="399.9999938517441" r="3"/><circle cx="700" cy="399.9999934892171" r="3"/><circle cx="735" cy="399.9999932189693" r="3"/><circle cx="770" cy="399.99999272440044" r="3"/><circle cx="805" cy="399.99999154977576" r="3"/><circle cx="840" cy="399.99999246560174" r="3"/><path class="error-bar" x="0" y="400" d="M 0 400 V 399.9999999948697 h -3 h 6 h -3 V 400.0000000051303 h -3 h 6"/><path class="error-bar" x="35" y="399.9999996721241" d="M 35 399.9999996721241 V 399.9999996437597 h -3 h 6 h -3 V 399.9999997004885 h -3 h 6"/><path class="error-bar" x="70" y="399.9999993426405" d="M 70 399.9999993426405 V 399.9999993346214 h -3 h 6 h -3 V 399.9999993506595 h -3 h 6"/><path class="error-bar" x="105" y="399.99999899297995" d="M 105 399.99999899297995 V 399.99999898074935 h -3 h 6 h -3 V 399.9999990052106 h -3 h 6"/><path class="error-bar" x="140" y="399.99999864360586" d="M 140 399.99999864360586 V 399.9999986175032 h -3 h 6 h -3 V 399.99999866970853 h -3 h 6"/><path class="error-bar" x="175" y="399.99999833170034" d="M 175 399.99999833170034 V 399.99999829020317 h -3 h 6 h -3 V 399.9999983731975 h -3 h 6"/><path class="error-bar" x="210" y="399.9999980330444" d="M 210 399.9999980330444 V 399.9999980205249 h -3 h 6 h -3 V 399.99999804556387 h -3 h 6"/><path class="error-bar" x="245.00000000000003" y="399.9999977636661" d="M 245.00000000000003 399.9999977636661 V 399.99999772085323 h -3 h 6 h -3 V 399.999997806479 h -3 h 6"/><path class="error-bar" x="280" y="399.9999973868573" d="M 280 399.9999973868573 V 399.99999734785916 h -3 h 6 h -3 V 399.99999742585544 h -3 h 6"/><path class="error-bar" x="315" y="399.9999969798085" d="M 315 399.9999969798085 V 399.99999694626547 h -3 h 6 h -3 V 399.9999970133515 h -3 h 6"/><path class="error-bar" x="350" y="399.99999654334124" d="M 350 399.99999654334124 V 399.99999647402194 h -3 h 6 h -3 V 399.9999966126606 h -3 h 6"/><path class="error-bar" x="385" y="399.99999645948907" d="M 385 399.99999645948907 V 399.9999962653937 h -3 h 6 h -3 V 399.9999966535844 h -3 h 6"/><path class="error-bar" x="420" y="399.99999630956864" d="M 420 399.99999630956864 V 399.9999962533919 h -3 h 6 h -3 V 399.9999963657454 h -3 h 6"/><path class="error-bar" x="454.99999999999994" y="399.9999958249612" d="M 454.99999999999994 399.9999958249612 V 399.9999957875502 h -3 h 6 h -3 V 399.99999586237215 h -3 h 6"/><path class="error-bar" x="490.00000000000006" y="399.99999552612593" d="M 490.00000000000006 399.99999552612593 V 399.99999549430737 h -3 h 6 h -3 V 399.9999955579445 h -3 h 6"/><path class="error-bar" x="525" y="399.99999502651394" d="M 525 399.99999502651394 V 399.9999949979439 h -3 h 6 h -3 V 399.99999505508396 h -3 h 6"/><path class="error-bar" x="560" y="399.99999473467847" d="M 560 399.99999473467847 V 399.99999468017575 h -3 h 6 h -3 V 399.9999947891812 h -3 h 6"/><path class="error-bar" x="595" y="399.99999443948593" d="M 595 399.99999443948593 V 399.9999943792435 h -3 h 6 h -3 V 399.9999944997283 h -3 h 6"/><path class="error-bar" x="630" y="399.9999940426703" d="M 630 399.9999940426703 V 399.99999399508914 h -3 h 6 h -3 V 399.9999940902515 h -3 h 6"/><path class="error-bar" x="665" y="399.9999938517441" d="M 665 399.9999938517441 V 399.9999938062234 h -3 h 6 h -3 V 399.99999389726474 h -3 h 6"/><path class="error-bar" x="700" y="399.9999934892171" d="M 700 399.9999934892171 V 399.9999933796497 h -3 h 6 h -3 V 399.99999359878444 h -3 h 6"/><path class="error-bar" x="735" y="399.9999932189693" d="M 735 399.9999932189693 V 399.99999316941717 h -3 h 6 h -3 V 399.99999326852134 h -3 h 6"/><path class="error-bar" x="770" y="399.99999272440044" d="M 770 399.99999272440044 V 399.9999926926496 h -3 h 6 h -3 V 399.9999927561513 h -3 h 6"/><path class="error-bar" x="805" y="399.99999154977576" d="M 805 399.99999154977576 V 399.9999912027035 h -3 h 6 h -3 V 399.99999189684803 h -3 h 6"/><path class="error-bar" x="840" y="399.99999246560174" d="M 840 399.99999246560174 V 399.9999923295492 h -3 h 6 h -3 V 399.9999926016543 h -3 h 6"/><path class="line" d="M0,400L35,399.9999996721241L70,399.9999993426405L105,399.99999899297995L140,399.99999864360586L175,399.99999833170034L210,399.9999980330444L245.00000000000003,399.9999977636661L280,399.9999973868573L315,399.9999969798085L350,399.99999654334124L385,399.99999645948907L420,399.99999630956864L454.99999999999994,399.9999958249612L490.00000000000006,399.99999552612593L525,399.99999502651394L560,399.99999473467847L595,399.99999443948593L630,399.9999940426703L665,399.9999938517441L700,399.9999934892171L735,399.9999932189693L770,399.99999272440044L805,399.99999154977576L840,399.99999246560174"/></g><g class="legend" transform="translate(50, 50)"><rect x="0" y="0" width="15" height="15" class="data-series-0"/><rect x="0" y="20" width="15" height="15" class="data-series-1"/><text x="24" y="13">a &lt;&gt; b</text><text x="24" y="33">i a b</text></g></g></svg>