<svg xmlns="http://www.w3.org/2000/svg" width="960" height="500"><defs><style type="text/css">
.background {
  fill: white;
}

text {
  font-size: 14px;
  font-family: sans-serif;
}

.axis-path,
.axis-line {
  fill: none;
  stroke: #000;
  stroke-width: 1px;
  shape-rendering: crispEdges;
}

.line {
  fill: none;
  stroke-width: 1.5px;
}

.data-series-0 {
  stroke: steelblue;
  fill: steelblue;
}

.data-series-1 {
  stroke: crimson;
  fill: crimson;
}

.data-series-2 {
  stroke: mediumseagreen;
  fill: mediumseagreen;
}

.data-series-3 {
  stroke: mediumslateblue;
  fill: mediumslateblue;
}

.data-series-4 {
  stroke: goldenrod;
  fill: goldenrod;
}

.error-bar {
  fill: none;
}
</style></defs><rect width="960" height="500" class="background"/><g transform="translate(80,40)"><g transform="translate(420, 0)"><text style="text-anchor: middle; font-size: 28px;">`foldl (\a b -&gt; show a &lt;&gt; show b) "" arrayOfInts`</text></g><g class="x axis" transform="translate(0,400)"><g class="tick" style="opacity: 1;" transform="translate(35,0)"><line y2="6" x2="0" class="axis-line"/><text dy=".71em" style="text-anchor: middle;" y="9" x="0">2</text></g><g class="tick" style="opacity: 1;" transform="translate(105,0)"><line y2="6" x2="0" class="axis-line"/><text dy=".71em" style="text-anchor: middle;" y="9" x="0">4</text></g><g class="tick" style="opacity: 1;" transform="translate(175,0)"><line y2="6" x2="0" class="axis-line"/><text dy=".71em" style="text-anchor: middle;" y="9" x="0">6</text></g><g class="tick" style="opacity: 1;" transform="translate(245.00000000000003,0)"><line y2="6" x2="0" class="axis-line"/><text dy=".71em" style="text-anchor: middle;" y="9" x="0">8</text></g><g class="tick" style="opacity: 1;" transform="translate(315,0)"><line y2="6" x2="0" class="axis-line"/><text dy=".71em" style="text-anchor: middle;" y="9" x="0">10</text></g><g class="tick" style="opacity: 1;" transform="translate(385,0)"><line y2="6" x2="0" class="axis-line"/><text dy=".71em" style="text-anchor: middle;" y="9" x="0">12</text></g><g class="tick" style="opacity: 1;" transform="translate(454.99999999999994,0)"><line y2="6" x2="0" class="axis-line"/><text dy=".71em" style="text-anchor: middle;" y="9" x="0">14</text></g><g class="tick" style="opacity: 1;" transform="translate(525,0)"><line y2="6" x2="0" class="axis-line"/><text dy=".71em" style="text-anchor: middle;" y="9" x="0">16</text></g><g class="tick" style="opacity: 1;" transform="translate(595,0)"><line y2="6" x2="0" class="axis-line"/><text dy=".71em" style="text-anchor: middle;" y="9" x="0">18</text></g><g class="tick" style="opacity: 1;" transform="translate(665,0)"><line y2="6" x2="0" class="axis-line"/><text dy=".71em" style="text-anchor: middle;" y="9" x="0">20</text></g><g class="tick" style="opacity: 1;" transform="translate(735,0)"><line y2="6" x2="0" class="axis-line"/><text dy=".71em" style="text-anchor: middle;" y="9" x="0">22</text></g><g class="tick" style="opacity: 1;" transform="translate(805,0)"><line y2="6" x2="0" class="axis-line"/><text dy=".71em" style="text-anchor: middle;" y="9" x="0">24</text></g><path class="axis-path" d="M0,6V0H840V6"/><text x="420" y="40" style="text-anchor: middle;">Number of elements in the array</text></g><g class="y axis"><g class="tick" style="opacity: 1;" transform="translate(0,350.64867066797547)"><line x2="-6" y2="0" class="axis-line"/><text dy=".32em" style="text-anchor: end;" x="-9" y="0">10.00</text></g><g class="tick" style="opacity: 1;" transform="translate(0,301.29734022921315)"><line x2="-6" y2="0" class="axis-line"/><text dy=".32em" style="text-anchor: end;" x="-9" y="0">20.00</text></g><g class="tick" style="opacity: 1;" transform="translate(0,251.9460097904509)"><line x2="-6" y2="0" class="axis-line"/><text dy=".32em" style="text-anchor: end;" x="-9" y="0">30.00</text></g><g class="tick" style="opacity: 1;" transform="translate(0,202.59467935168863)"><line x2="-6" y2="0" class="axis-line"/><text dy=".32em" style="text-anchor: end;" x="-9" y="0">40.00</text></g><g class="tick" style="opacity: 1;" transform="translate(0,153.2433489129264)"><line x2="-6" y2="0" class="axis-line"/><text dy=".32em" style="text-anchor: end;" x="-9" y="0">50.00</text></g><g class="tick" style="opacity: 1;" transform="translate(0,103.89201847416412)"><line x2="-6" y2="0" class="axis-line"/><text dy=".32em" style="text-anchor: end;" x="-9" y="0">60.00</text></g><g class="tick" style="opacity: 1;" transform="translate(0,54.54068803540184)"><line x2="-6" y2="0" class="axis-line"/><text dy=".32em" style="text-anchor: end;" x="-9" y="0">70.00</text></g><g class="tick" style="opacity: 1;" transform="translate(0,5.1893575966395655)"><line x2="-6" y2="0" class="axis-line"/><text dy=".32em" style="text-anchor: end;" x="-9" y="0">80.00</text></g><path class="axis-path" d="M-6,0H0V400H-6"/><text transform="rotate(-90)" y="6" dy=".71em" style="text-anchor: end;">Mean running time (seconds)</text></g><g class="data-series-0"><circle cx="0" cy="400" r="3"/><circle cx="35" cy="399.9999968999489" r="3"/><circle cx="70" cy="399.99999198697975" r="3"/><circle cx="105" cy="399.9999840814221" r="3"/><circle cx="140" cy="399.99996992078474" r="3"/><circle cx="175" cy="399.99994445247773" r="3"/><circle cx="210" cy="399.9998962315669" r="3"/><circle cx="245.00000000000003" cy="399.99980587230584" r="3"/><circle cx="280" cy="399.99963073796266" r="3"/><circle cx="315" cy="399.9992917123536" r="3"/><circle cx="350" cy="399.9986101831621" r="3"/><circle cx="385" cy="399.99726877593775" r="3"/><circle cx="420" cy="399.99424353397046" r="3"/><circle cx="454.99999999999994" cy="399.98807451050624" r="3"/><circle cx="490.00000000000006" cy="399.9748107337891" r="3"/><circle cx="525" cy="399.9471186955153" r="3"/><circle cx="560" cy="399.8926029962236" r="3"/><circle cx="595" cy="399.7718720675194" r="3"/><circle cx="630" cy="399.31264837320646" r="3"/><circle cx="665" cy="398.6471862695862" r="3"/><circle cx="700" cy="396.0533985066117" r="3"/><circle cx="735" cy="389.96013492031534" r="3"/><circle cx="770" cy="368.770255640601" r="3"/><circle cx="805" cy="295.4694403592408" r="3"/><circle cx="840" cy="0" r="3"/><path class="error-bar" x="0" y="400" d="M 0 400 V 399.99999998576084 h -3 h 6 h -3 V 400.00000001423916 h -3 h 6"/><path class="error-bar" x="35" y="399.9999968999489" d="M 35 399.9999968999489 V 399.9999968193847 h -3 h 6 h -3 V 399.99999698051306 h -3 h 6"/><path class="error-bar" x="70" y="399.99999198697975" d="M 70 399.99999198697975 V 399.9999918953594 h -3 h 6 h -3 V 399.9999920786001 h -3 h 6"/><path class="error-bar" x="105" y="399.9999840814221" d="M 105 399.9999840814221 V 399.9999838632186 h -3 h 6 h -3 V 399.9999842996257 h -3 h 6"/><path class="error-bar" x="140" y="399.99996992078474" d="M 140 399.99996992078474 V 399.99996966346185 h -3 h 6 h -3 V 399.9999701781076 h -3 h 6"/><path class="error-bar" x="175" y="399.99994445247773" d="M 175 399.99994445247773 V 399.99994414896713 h -3 h 6 h -3 V 399.9999447559884 h -3 h 6"/><path class="error-bar" x="210" y="399.9998962315669" d="M 210 399.9998962315669 V 399.9998951434441 h -3 h 6 h -3 V 399.99989731968964 h -3 h 6"/><path class="error-bar" x="245.00000000000003" y="399.99980587230584" d="M 245.00000000000003 399.99980587230584 V 399.99980422763895 h -3 h 6 h -3 V 399.99980751697274 h -3 h 6"/><path class="error-bar" x="280" y="399.99963073796266" d="M 280 399.99963073796266 V 399.99962892607994 h -3 h 6 h -3 V 399.99963254984544 h -3 h 6"/><path class="error-bar" x="315" y="399.9992917123536" d="M 315 399.9992917123536 V 399.99928760023874 h -3 h 6 h -3 V 399.99929582446856 h -3 h 6"/><path class="error-bar" x="350" y="399.9986101831621" d="M 350 399.9986101831621 V 399.99859643321776 h -3 h 6 h -3 V 399.9986239331065 h -3 h 6"/><path class="error-bar" x="385" y="399.99726877593775" d="M 385 399.99726877593775 V 399.99725705389164 h -3 h 6 h -3 V 399.9972804979839 h -3 h 6"/><path class="error-bar" x="420" y="399.99424353397046" d="M 420 399.99424353397046 V 399.9940840487484 h -3 h 6 h -3 V 399.99440301919253 h -3 h 6"/><path class="error-bar" x="454.99999999999994" y="399.98807451050624" d="M 454.99999999999994 399.98807451050624 V 399.987872995587 h -3 h 6 h -3 V 399.98827602542553 h -3 h 6"/><path class="error-bar" x="490.00000000000006" y="399.9748107337891" d="M 490.00000000000006 399.9748107337891 V 399.97405471097903 h -3 h 6 h -3 V 399.9755667565992 h -3 h 6"/><path class="error-bar" x="525" y="399.9471186955153" d="M 525 399.9471186955153 V 399.94526362822006 h -3 h 6 h -3 V 399.9489737628105 h -3 h 6"/><path class="error-bar" x="560" y="399.8926029962236" d="M 560 399.8926029962236 V 399.88819119839786 h -3 h 6 h -3 V 399.89701479404937 h -3 h 6"/><path class="error-bar" x="595" y="399.7718720675194" d="M 595 399.7718720675194 V 399.7521897084324 h -3 h 6 h -3 V 399.7915544266063 h -3 h 6"/><path class="error-bar" x="630" y="399.31264837320646" d="M 630 399.31264837320646 V 399.2872811460875 h -3 h 6 h -3 V 399.3380156003255 h -3 h 6"/><path class="error-bar" x="665" y="398.6471862695862" d="M 665 398.6471862695862 V 398.59378645656346 h -3 h 6 h -3 V 398.700586082609 h -3 h 6"/><path class="error-bar" x="700" y="396.0533985066117" d="M 700 396.0533985066117 V 395.8992836808459 h -3 h 6 h -3 V 396.20751333237746 h -3 h 6"/><path class="error-bar" x="735" y="389.96013492031534" d="M 735 389.96013492031534 V 389.8679549462769 h -3 h 6 h -3 V 390.0523148943539 h -3 h 6"/><path class="error-bar" x="770" y="368.770255640601" d="M 770 368.770255640601 V 364.52174203300234 h -3 h 6 h -3 V 373.0187692481997 h -3 h 6"/><path class="error-bar" x="805" y="295.4694403592408" d="M 805 295.4694403592408 V 283.6350146940566 h -3 h 6 h -3 V 307.303866024425 h -3 h 6"/><path class="error-bar" x="840" y="0" d="M 840 0 V -41.117428205705586 h -3 h 6 h -3 V 41.11742820570563 h -3 h 6"/><path class="line" d="M0,400L35,399.9999968999489L70,399.99999198697975L105,399.9999840814221L140,399.99996992078474L175,399.99994445247773L210,399.9998962315669L245.00000000000003,399.99980587230584L280,399.99963073796266L315,399.9992917123536L350,399.9986101831621L385,399.99726877593775L420,399.99424353397046L454.99999999999994,399.98807451050624L490.00000000000006,399.9748107337891L525,399.9471186955153L560,399.8926029962236L595,399.7718720675194L630,399.31264837320646L665,398.6471862695862L700,396.0533985066117L735,389.96013492031534L770,368.770255640601L805,295.4694403592408L840,0"/></g><g class="legend" transform="translate(50, 50)"><rect x="0" y="0" width="15" height="15" class="data-series-0"/><text x="24" y="13">a &lt;&gt; b</text></g></g></svg>