<svg xmlns="http://www.w3.org/2000/svg" width="960" height="500"><defs><style type="text/css">
.background {
  fill: white;
}

text {
  font-size: 14px;
  font-family: sans-serif;
}

.axis-path,
.axis-line {
  fill: none;
  stroke: #000;
  stroke-width: 1px;
  shape-rendering: crispEdges;
}

.line {
  fill: none;
  stroke-width: 1.5px;
}

.data-series-0 {
  stroke: steelblue;
  fill: steelblue;
}

.data-series-1 {
  stroke: crimson;
  fill: crimson;
}

.data-series-2 {
  stroke: mediumseagreen;
  fill: mediumseagreen;
}

.data-series-3 {
  stroke: mediumslateblue;
  fill: mediumslateblue;
}

.data-series-4 {
  stroke: goldenrod;
  fill: goldenrod;
}

.error-bar {
  fill: none;
}
</style></defs><rect width="960" height="500" class="background"/><g transform="translate(80,40)"><g transform="translate(420, 0)"><text style="text-anchor: middle; font-size: 28px;">`foldl acc "" arrayOfInts` where `acc` is `a &lt;&gt; show b` or `i`</text></g><g class="x axis" transform="translate(0,400)"><g class="tick" style="opacity: 1;" transform="translate(0,0)"><line y2="6" x2="0" class="axis-line"/><text dy=".71em" style="text-anchor: middle;" y="9" x="0">1,000</text></g><g class="tick" style="opacity: 1;" transform="translate(105,0)"><line y2="6" x2="0" class="axis-line"/><text dy=".71em" style="text-anchor: middle;" y="9" x="0">1,500</text></g><g class="tick" style="opacity: 1;" transform="translate(210,0)"><line y2="6" x2="0" class="axis-line"/><text dy=".71em" style="text-anchor: middle;" y="9" x="0">2,000</text></g><g class="tick" style="opacity: 1;" transform="translate(315,0)"><line y2="6" x2="0" class="axis-line"/><text dy=".71em" style="text-anchor: middle;" y="9" x="0">2,500</text></g><g class="tick" style="opacity: 1;" transform="translate(420,0)"><line y2="6" x2="0" class="axis-line"/><text dy=".71em" style="text-anchor: middle;" y="9" x="0">3,000</text></g><g class="tick" style="opacity: 1;" transform="translate(525,0)"><line y2="6" x2="0" class="axis-line"/><text dy=".71em" style="text-anchor: middle;" y="9" x="0">3,500</text></g><g class="tick" style="opacity: 1;" transform="translate(630,0)"><line y2="6" x2="0" class="axis-line"/><text dy=".71em" style="text-anchor: middle;" y="9" x="0">4,000</text></g><g class="tick" style="opacity: 1;" transform="translate(735,0)"><line y2="6" x2="0" class="axis-line"/><text dy=".71em" style="text-anchor: middle;" y="9" x="0">4,500</text></g><g class="tick" style="opacity: 1;" transform="translate(840,0)"><line y2="6" x2="0" class="axis-line"/><text dy=".71em" style="text-anchor: middle;" y="9" x="0">5,000</text></g><path class="axis-path" d="M0,6V0H840V6"/><text x="420" y="40" style="text-anchor: middle;">Number of elements in the array</text></g><g class="y axis"><g class="tick" style="opacity: 1;" transform="translate(0,376.30030183260084)"><line x2="-6" y2="0" class="axis-line"/><text dy=".32em" style="text-anchor: end;" x="-9" y="0">5.00e-5</text></g><g class="tick" style="opacity: 1;" transform="translate(0,324.6894070270964)"><line x2="-6" y2="0" class="axis-line"/><text dy=".32em" style="text-anchor: end;" x="-9" y="0">1.00e-4</text></g><g class="tick" style="opacity: 1;" transform="translate(0,273.0785122215921)"><line x2="-6" y2="0" class="axis-line"/><text dy=".32em" style="text-anchor: end;" x="-9" y="0">1.50e-4</text></g><g class="tick" style="opacity: 1;" transform="translate(0,221.4676174160877)"><line x2="-6" y2="0" class="axis-line"/><text dy=".32em" style="text-anchor: end;" x="-9" y="0">2.00e-4</text></g><g class="tick" style="opacity: 1;" transform="translate(0,169.85672261058338)"><line x2="-6" y2="0" class="axis-line"/><text dy=".32em" style="text-anchor: end;" x="-9" y="0">2.50e-4</text></g><g class="tick" style="opacity: 1;" transform="translate(0,118.24582780507905)"><line x2="-6" y2="0" class="axis-line"/><text dy=".32em" style="text-anchor: end;" x="-9" y="0">3.00e-4</text></g><g class="tick" style="opacity: 1;" transform="translate(0,66.63493299957466)"><line x2="-6" y2="0" class="axis-line"/><text dy=".32em" style="text-anchor: end;" x="-9" y="0">3.50e-4</text></g><g class="tick" style="opacity: 1;" transform="translate(0,15.024038194070233)"><line x2="-6" y2="0" class="axis-line"/><text dy=".32em" style="text-anchor: end;" x="-9" y="0">4.00e-4</text></g><path class="axis-path" d="M-6,0H0V400H-6"/><text transform="rotate(-90)" y="6" dy=".71em" style="text-anchor: end;">Mean running time (seconds)</text></g><g class="data-series-0"><circle cx="0" cy="400" r="3"/><circle cx="210" cy="299.51454891432195" r="3"/><circle cx="420" cy="217.9567259518971" r="3"/><circle cx="630" cy="141.34856088301424" r="3"/><circle cx="840" cy="37.94675007056716" r="3"/><path class="error-bar" x="0" y="400" d="M 0 400 V 399.3814335654152 h -3 h 6 h -3 V 400.6185664345848 h -3 h 6"/><path class="error-bar" x="210" y="299.51454891432195" d="M 210 299.51454891432195 V 296.79904864951754 h -3 h 6 h -3 V 302.23004917912635 h -3 h 6"/><path class="error-bar" x="420" y="217.9567259518971" d="M 420 217.9567259518971 V 211.87177594671303 h -3 h 6 h -3 V 224.04167595708114 h -3 h 6"/><path class="error-bar" x="630" y="141.34856088301424" d="M 630 141.34856088301424 V 132.51570498316156 h -3 h 6 h -3 V 150.18141678286696 h -3 h 6"/><path class="error-bar" x="840" y="37.94675007056716" d="M 840 37.94675007056716 V 21.66445828398431 h -3 h 6 h -3 V 54.22904185715001 h -3 h 6"/><path class="line" d="M0,400L210,299.51454891432195L420,217.9567259518971L630,141.34856088301424L840,37.94675007056716"/></g><g class="data-series-1"><circle cx="0" cy="363.7903607707838" r="3"/><circle cx="210" cy="288.25742980838436" r="3"/><circle cx="420" cy="198.6434229534952" r="3"/><circle cx="630" cy="121.60453654489353" r="3"/><circle cx="840" cy="0" r="3"/><path class="error-bar" x="0" y="363.7903607707838" d="M 0 363.7903607707838 V 362.12374463182766 h -3 h 6 h -3 V 365.45697690974004 h -3 h 6"/><path class="error-bar" x="210" y="288.25742980838436" d="M 210 288.25742980838436 V 283.7766060962461 h -3 h 6 h -3 V 292.73825352052273 h -3 h 6"/><path class="error-bar" x="420" y="198.6434229534952" d="M 420 198.6434229534952 V 190.5910572038225 h -3 h 6 h -3 V 206.69578870316795 h -3 h 6"/><path class="error-bar" x="630" y="121.60453654489353" d="M 630 121.60453654489353 V 109.254181556443 h -3 h 6 h -3 V 133.95489153334407 h -3 h 6"/><path class="error-bar" x="840" y="0" d="M 840 0 V -21.580787488273323 h -3 h 6 h -3 V 21.580787488273323 h -3 h 6"/><path class="line" d="M0,363.7903607707838L210,288.25742980838436L420,198.6434229534952L630,121.60453654489353L840,0"/></g><g class="legend" transform="translate(50, 50)"><rect x="0" y="0" width="15" height="15" class="data-series-0"/><rect x="0" y="20" width="15" height="15" class="data-series-1"/><text x="24" y="13">a &lt;&gt; b</text><text x="24" y="33">i a b</text></g></g></svg>