<svg xmlns="http://www.w3.org/2000/svg" width="960" height="500"><defs><style type="text/css">
.background {
  fill: white;
}

text {
  font-size: 14px;
  font-family: sans-serif;
}

.axis-path,
.axis-line {
  fill: none;
  stroke: #000;
  stroke-width: 1px;
  shape-rendering: crispEdges;
}

.line {
  fill: none;
  stroke-width: 1.5px;
}

.data-series-0 {
  stroke: steelblue;
  fill: steelblue;
}

.data-series-1 {
  stroke: crimson;
  fill: crimson;
}

.data-series-2 {
  stroke: mediumseagreen;
  fill: mediumseagreen;
}

.data-series-3 {
  stroke: mediumslateblue;
  fill: mediumslateblue;
}

.data-series-4 {
  stroke: goldenrod;
  fill: goldenrod;
}

.error-bar {
  fill: none;
}
</style></defs><rect width="960" height="500" class="background"/><g transform="translate(80,40)"><g transform="translate(420, 0)"><text style="text-anchor: middle; font-size: 28px;">`foldl acc "" array` where `acc` is `a &lt;&gt; b` or `i a b`</text></g><g class="x axis" transform="translate(0,400)"><g class="tick" style="opacity: 1;" transform="translate(44.21052631578947,0)"><line y2="6" x2="0" class="axis-line"/><text dy=".71em" style="text-anchor: middle;" y="9" x="0">2</text></g><g class="tick" style="opacity: 1;" transform="translate(132.6315789473684,0)"><line y2="6" x2="0" class="axis-line"/><text dy=".71em" style="text-anchor: middle;" y="9" x="0">4</text></g><g class="tick" style="opacity: 1;" transform="translate(221.05263157894737,0)"><line y2="6" x2="0" class="axis-line"/><text dy=".71em" style="text-anchor: middle;" y="9" x="0">6</text></g><g class="tick" style="opacity: 1;" transform="translate(309.4736842105263,0)"><line y2="6" x2="0" class="axis-line"/><text dy=".71em" style="text-anchor: middle;" y="9" x="0">8</text></g><g class="tick" style="opacity: 1;" transform="translate(397.89473684210526,0)"><line y2="6" x2="0" class="axis-line"/><text dy=".71em" style="text-anchor: middle;" y="9" x="0">10</text></g><g class="tick" style="opacity: 1;" transform="translate(486.3157894736842,0)"><line y2="6" x2="0" class="axis-line"/><text dy=".71em" style="text-anchor: middle;" y="9" x="0">12</text></g><g class="tick" style="opacity: 1;" transform="translate(574.7368421052631,0)"><line y2="6" x2="0" class="axis-line"/><text dy=".71em" style="text-anchor: middle;" y="9" x="0">14</text></g><g class="tick" style="opacity: 1;" transform="translate(663.1578947368421,0)"><line y2="6" x2="0" class="axis-line"/><text dy=".71em" style="text-anchor: middle;" y="9" x="0">16</text></g><g class="tick" style="opacity: 1;" transform="translate(751.578947368421,0)"><line y2="6" x2="0" class="axis-line"/><text dy=".71em" style="text-anchor: middle;" y="9" x="0">18</text></g><g class="tick" style="opacity: 1;" transform="translate(840,0)"><line y2="6" x2="0" class="axis-line"/><text dy=".71em" style="text-anchor: middle;" y="9" x="0">20</text></g><path class="axis-path" d="M0,6V0H840V6"/><text x="420" y="40" style="text-anchor: middle;">Number of elements in the array</text></g><g class="y axis"><g class="tick" style="opacity: 1;" transform="translate(0,370.258701232473)"><line x2="-6" y2="0" class="axis-line"/><text dy=".32em" style="text-anchor: end;" x="-9" y="0">0.02</text></g><g class="tick" style="opacity: 1;" transform="translate(0,340.5172176867814)"><line x2="-6" y2="0" class="axis-line"/><text dy=".32em" style="text-anchor: end;" x="-9" y="0">0.04</text></g><g class="tick" style="opacity: 1;" transform="translate(0,310.77573414108986)"><line x2="-6" y2="0" class="axis-line"/><text dy=".32em" style="text-anchor: end;" x="-9" y="0">0.06</text></g><g class="tick" style="opacity: 1;" transform="translate(0,281.0342505953983)"><line x2="-6" y2="0" class="axis-line"/><text dy=".32em" style="text-anchor: end;" x="-9" y="0">0.08</text></g><g class="tick" style="opacity: 1;" transform="translate(0,251.2927670497067)"><line x2="-6" y2="0" class="axis-line"/><text dy=".32em" style="text-anchor: end;" x="-9" y="0">0.10</text></g><g class="tick" style="opacity: 1;" transform="translate(0,221.55128350401512)"><line x2="-6" y2="0" class="axis-line"/><text dy=".32em" style="text-anchor: end;" x="-9" y="0">0.12</text></g><g class="tick" style="opacity: 1;" transform="translate(0,191.80979995832354)"><line x2="-6" y2="0" class="axis-line"/><text dy=".32em" style="text-anchor: end;" x="-9" y="0">0.14</text></g><g class="tick" style="opacity: 1;" transform="translate(0,162.068316412632)"><line x2="-6" y2="0" class="axis-line"/><text dy=".32em" style="text-anchor: end;" x="-9" y="0">0.16</text></g><g class="tick" style="opacity: 1;" transform="translate(0,132.32683286694038)"><line x2="-6" y2="0" class="axis-line"/><text dy=".32em" style="text-anchor: end;" x="-9" y="0">0.18</text></g><g class="tick" style="opacity: 1;" transform="translate(0,102.58534932124878)"><line x2="-6" y2="0" class="axis-line"/><text dy=".32em" style="text-anchor: end;" x="-9" y="0">0.20</text></g><g class="tick" style="opacity: 1;" transform="translate(0,72.84386577555723)"><line x2="-6" y2="0" class="axis-line"/><text dy=".32em" style="text-anchor: end;" x="-9" y="0">0.22</text></g><g class="tick" style="opacity: 1;" transform="translate(0,43.10238222986564)"><line x2="-6" y2="0" class="axis-line"/><text dy=".32em" style="text-anchor: end;" x="-9" y="0">0.24</text></g><g class="tick" style="opacity: 1;" transform="translate(0,13.36089868417405)"><line x2="-6" y2="0" class="axis-line"/><text dy=".32em" style="text-anchor: end;" x="-9" y="0">0.26</text></g><path class="axis-path" d="M-6,0H0V400H-6"/><text transform="rotate(-90)" y="6" dy=".71em" style="text-anchor: end;">Mean running time (seconds)</text></g><g class="data-series-0"><circle cx="0" cy="399.9998804158303" r="3"/><circle cx="44.21052631578947" cy="399.99900190983203" r="3"/><circle cx="88.42105263157895" cy="399.9977030558438" r="3"/><circle cx="132.6315789473684" cy="399.9956909967926" r="3"/><circle cx="176.8421052631579" cy="399.99093146044373" r="3"/><circle cx="221.05263157894737" cy="399.9844542217213" r="3"/><circle cx="265.2631578947368" cy="399.96941522108233" r="3"/><circle cx="309.4736842105263" cy="399.9431477564584" r="3"/><circle cx="353.6842105263158" cy="399.89400802676045" r="3"/><circle cx="397.89473684210526" cy="399.7929125492873" r="3"/><circle cx="442.10526315789474" cy="399.5964584088076" r="3"/><circle cx="486.3157894736842" cy="399.20737330769504" r="3"/><circle cx="530.5263157894736" cy="398.4170655477974" r="3"/><circle cx="574.7368421052631" cy="396.6056012137424" r="3"/><circle cx="618.9473684210526" cy="392.8751803256942" r="3"/><circle cx="663.1578947368421" cy="384.5841516753777" r="3"/><circle cx="707.3684210526316" cy="369.20969046000124" r="3"/><circle cx="751.578947368421" cy="335.4524053247714" r="3"/><circle cx="795.7894736842105" cy="223.88054614068668" r="3"/><circle cx="840" cy="0" r="3"/><path class="error-bar" x="0" y="399.9998804158303" d="M 0 399.9998804158303 V 399.9998713351472 h -3 h 6 h -3 V 399.9998894965135 h -3 h 6"/><path class="error-bar" x="44.21052631578947" y="399.99900190983203" d="M 44.21052631578947 399.99900190983203 V 399.9989853961622 h -3 h 6 h -3 V 399.99901842350187 h -3 h 6"/><path class="error-bar" x="88.42105263157895" y="399.9977030558438" d="M 88.42105263157895 399.9977030558438 V 399.99763668881553 h -3 h 6 h -3 V 399.99776942287195 h -3 h 6"/><path class="error-bar" x="132.6315789473684" y="399.9956909967926" d="M 132.6315789473684 399.9956909967926 V 399.9956554029445 h -3 h 6 h -3 V 399.9957265906405 h -3 h 6"/><path class="error-bar" x="176.8421052631579" y="399.99093146044373" d="M 176.8421052631579 399.99093146044373 V 399.9908653754657 h -3 h 6 h -3 V 399.9909975454218 h -3 h 6"/><path class="error-bar" x="221.05263157894737" y="399.9844542217213" d="M 221.05263157894737 399.9844542217213 V 399.9843919986847 h -3 h 6 h -3 V 399.98451644475784 h -3 h 6"/><path class="error-bar" x="265.2631578947368" y="399.96941522108233" d="M 265.2631578947368 399.96941522108233 V 399.9686346146675 h -3 h 6 h -3 V 399.97019582749715 h -3 h 6"/><path class="error-bar" x="309.4736842105263" y="399.9431477564584" d="M 309.4736842105263 399.9431477564584 V 399.9428234931636 h -3 h 6 h -3 V 399.9434720197533 h -3 h 6"/><path class="error-bar" x="353.6842105263158" y="399.89400802676045" d="M 353.6842105263158 399.89400802676045 V 399.8904081364414 h -3 h 6 h -3 V 399.89760791707954 h -3 h 6"/><path class="error-bar" x="397.89473684210526" y="399.7929125492873" d="M 397.89473684210526 399.7929125492873 V 399.7911487679625 h -3 h 6 h -3 V 399.79467633061205 h -3 h 6"/><path class="error-bar" x="442.10526315789474" y="399.5964584088076" d="M 442.10526315789474 399.5964584088076 V 399.5922903446776 h -3 h 6 h -3 V 399.6006264729376 h -3 h 6"/><path class="error-bar" x="486.3157894736842" y="399.20737330769504" d="M 486.3157894736842 399.20737330769504 V 399.2017404371514 h -3 h 6 h -3 V 399.2130061782387 h -3 h 6"/><path class="error-bar" x="530.5263157894736" y="398.4170655477974" d="M 530.5263157894736 398.4170655477974 V 398.36426008770763 h -3 h 6 h -3 V 398.4698710078872 h -3 h 6"/><path class="error-bar" x="574.7368421052631" y="396.6056012137424" d="M 574.7368421052631 396.6056012137424 V 396.53456940362616 h -3 h 6 h -3 V 396.6766330238586 h -3 h 6"/><path class="error-bar" x="618.9473684210526" y="392.8751803256942" d="M 618.9473684210526 392.8751803256942 V 392.61583765078416 h -3 h 6 h -3 V 393.1345230006042 h -3 h 6"/><path class="error-bar" x="663.1578947368421" y="384.5841516753777" d="M 663.1578947368421 384.5841516753777 V 383.87850129898976 h -3 h 6 h -3 V 385.28980205176566 h -3 h 6"/><path class="error-bar" x="707.3684210526316" y="369.20969046000124" d="M 707.3684210526316 369.20969046000124 V 367.9853853582924 h -3 h 6 h -3 V 370.4339955617101 h -3 h 6"/><path class="error-bar" x="751.578947368421" y="335.4524053247714" d="M 751.578947368421 335.4524053247714 V 329.5049029472339 h -3 h 6 h -3 V 341.3999077023089 h -3 h 6"/><path class="error-bar" x="795.7894736842105" y="223.88054614068668" d="M 795.7894736842105 223.88054614068668 V 203.7902278393 h -3 h 6 h -3 V 243.97086444207332 h -3 h 6"/><path class="error-bar" x="840" y="0" d="M 840 0 V -4.463791785704885 h -3 h 6 h -3 V 4.463791785704929 h -3 h 6"/><path class="line" d="M0,399.9998804158303L44.21052631578947,399.99900190983203L88.42105263157895,399.9977030558438L132.6315789473684,399.9956909967926L176.8421052631579,399.99093146044373L221.05263157894737,399.9844542217213L265.2631578947368,399.96941522108233L309.4736842105263,399.9431477564584L353.6842105263158,399.89400802676045L397.89473684210526,399.7929125492873L442.10526315789474,399.5964584088076L486.3157894736842,399.20737330769504L530.5263157894736,398.4170655477974L574.7368421052631,396.6056012137424L618.9473684210526,392.8751803256942L663.1578947368421,384.5841516753777L707.3684210526316,369.20969046000124L751.578947368421,335.4524053247714L795.7894736842105,223.88054614068668L840,0"/></g><g class="data-series-1"><circle cx="0" cy="400" r="3"/><circle cx="44.21052631578947" cy="399.99990218475756" r="3"/><circle cx="88.42105263157895" cy="399.9998402922487" r="3"/><circle cx="132.6315789473684" cy="399.9997131805142" r="3"/><circle cx="176.8421052631579" cy="399.9996375456193" r="3"/><circle cx="221.05263157894737" cy="399.9995276282426" r="3"/><circle cx="265.2631578947368" cy="399.99942884786856" r="3"/><circle cx="309.4736842105263" cy="399.999359769584" r="3"/><circle cx="353.6842105263158" cy="399.99930532065" r="3"/><circle cx="397.89473684210526" cy="399.99916490152225" r="3"/><circle cx="442.10526315789474" cy="399.99907917401794" r="3"/><circle cx="486.3157894736842" cy="399.9989857111776" r="3"/><circle cx="530.5263157894736" cy="399.9989367396353" r="3"/><circle cx="574.7368421052631" cy="399.9988451904662" r="3"/><circle cx="618.9473684210526" cy="399.9987740051035" r="3"/><circle cx="663.1578947368421" cy="399.99862434146945" r="3"/><circle cx="707.3684210526316" cy="399.99854703731455" r="3"/><circle cx="751.578947368421" cy="399.998468703966" r="3"/><circle cx="795.7894736842105" cy="399.9983566377733" r="3"/><circle cx="840" cy="399.99829017557516" r="3"/><path class="error-bar" x="0" y="400" d="M 0 400 V 399.99999420737964 h -3 h 6 h -3 V 400.00000579262036 h -3 h 6"/><path class="error-bar" x="44.21052631578947" y="399.99990218475756" d="M 44.21052631578947 399.99990218475756 V 399.99989637051556 h -3 h 6 h -3 V 399.99990799899956 h -3 h 6"/><path class="error-bar" x="88.42105263157895" y="399.9998402922487" d="M 88.42105263157895 399.9998402922487 V 399.99983331371044 h -3 h 6 h -3 V 399.9998472707869 h -3 h 6"/><path class="error-bar" x="132.6315789473684" y="399.9997131805142" d="M 132.6315789473684 399.9997131805142 V 399.9997028428182 h -3 h 6 h -3 V 399.99972351821026 h -3 h 6"/><path class="error-bar" x="176.8421052631579" y="399.9996375456193" d="M 176.8421052631579 399.9996375456193 V 399.9996178691656 h -3 h 6 h -3 V 399.99965722207304 h -3 h 6"/><path class="error-bar" x="221.05263157894737" y="399.9995276282426" d="M 221.05263157894737 399.9995276282426 V 399.99950991552447 h -3 h 6 h -3 V 399.99954534096076 h -3 h 6"/><path class="error-bar" x="265.2631578947368" y="399.99942884786856" d="M 265.2631578947368 399.99942884786856 V 399.9994224596508 h -3 h 6 h -3 V 399.9994352360863 h -3 h 6"/><path class="error-bar" x="309.4736842105263" y="399.999359769584" d="M 309.4736842105263 399.999359769584 V 399.9993489699411 h -3 h 6 h -3 V 399.9993705692269 h -3 h 6"/><path class="error-bar" x="353.6842105263158" y="399.99930532065" d="M 353.6842105263158 399.99930532065 V 399.9992716055578 h -3 h 6 h -3 V 399.99933903574225 h -3 h 6"/><path class="error-bar" x="397.89473684210526" y="399.99916490152225" d="M 397.89473684210526 399.99916490152225 V 399.99914120028956 h -3 h 6 h -3 V 399.999188602755 h -3 h 6"/><path class="error-bar" x="442.10526315789474" y="399.99907917401794" d="M 442.10526315789474 399.99907917401794 V 399.99906444074435 h -3 h 6 h -3 V 399.9990939072916 h -3 h 6"/><path class="error-bar" x="486.3157894736842" y="399.9989857111776" d="M 486.3157894736842 399.9989857111776 V 399.9989348711297 h -3 h 6 h -3 V 399.99903655122563 h -3 h 6"/><path class="error-bar" x="530.5263157894736" y="399.9989367396353" d="M 530.5263157894736 399.9989367396353 V 399.9989289173969 h -3 h 6 h -3 V 399.99894456187377 h -3 h 6"/><path class="error-bar" x="574.7368421052631" y="399.9988451904662" d="M 574.7368421052631 399.9988451904662 V 399.998836616334 h -3 h 6 h -3 V 399.99885376459844 h -3 h 6"/><path class="error-bar" x="618.9473684210526" y="399.9987740051035" d="M 618.9473684210526 399.9987740051035 V 399.998733352165 h -3 h 6 h -3 V 399.99881465804197 h -3 h 6"/><path class="error-bar" x="663.1578947368421" y="399.99862434146945" d="M 663.1578947368421 399.99862434146945 V 399.99857778038853 h -3 h 6 h -3 V 399.9986709025504 h -3 h 6"/><path class="error-bar" x="707.3684210526316" y="399.99854703731455" d="M 707.3684210526316 399.99854703731455 V 399.9984203722602 h -3 h 6 h -3 V 399.9986737023688 h -3 h 6"/><path class="error-bar" x="751.578947368421" y="399.998468703966" d="M 751.578947368421 399.998468703966 V 399.9984470221305 h -3 h 6 h -3 V 399.9984903858016 h -3 h 6"/><path class="error-bar" x="795.7894736842105" y="399.9983566377733" d="M 795.7894736842105 399.9983566377733 V 399.99834679019636 h -3 h 6 h -3 V 399.99836648535035 h -3 h 6"/><path class="error-bar" x="840" y="399.99829017557516" d="M 840 399.99829017557516 V 399.9982520352769 h -3 h 6 h -3 V 399.99832831587344 h -3 h 6"/><path class="line" d="M0,400L44.21052631578947,399.99990218475756L88.42105263157895,399.9998402922487L132.6315789473684,399.9997131805142L176.8421052631579,399.9996375456193L221.05263157894737,399.9995276282426L265.2631578947368,399.99942884786856L309.4736842105263,399.999359769584L353.6842105263158,399.99930532065L397.89473684210526,399.99916490152225L442.10526315789474,399.99907917401794L486.3157894736842,399.9989857111776L530.5263157894736,399.9989367396353L574.7368421052631,399.9988451904662L618.9473684210526,399.9987740051035L663.1578947368421,399.99862434146945L707.3684210526316,399.99854703731455L751.578947368421,399.998468703966L795.7894736842105,399.9983566377733L840,399.99829017557516"/></g><g class="legend" transform="translate(50, 50)"><rect x="0" y="0" width="15" height="15" class="data-series-0"/><rect x="0" y="20" width="15" height="15" class="data-series-1"/><text x="24" y="13">a &lt;&gt; b</text><text x="24" y="33">i a b</text></g></g></svg>